<svg xmlns="http://www.w3.org/2000/svg" xmlns:xlink="http://www.w3.org/1999/xlink" width="500" zoomAndPan="magnify" viewBox="0 0 375 374.999991" height="500" preserveAspectRatio="xMidYMid meet" version="1.0"><defs><clipPath id="c32ee3b24a"><path d="M 3.066406 251 L 372 251 L 372 375 L 3.066406 375 Z M 3.066406 251 " clip-rule="nonzero"/></clipPath></defs><g clip-path="url(#c32ee3b24a)"><path fill="#77c720" d="M 100.144531 251.269531 C 99.535156 251.300781 98.949219 251.429688 98.378906 251.65625 C 72.644531 256.175781 50.824219 262.496094 34.117188 271.105469 C 26.101562 274.976562 19.03125 280.136719 12.902344 286.589844 C 11.386719 288.128906 10.027344 289.796875 8.828125 291.589844 C 7.628906 293.386719 6.609375 295.277344 5.769531 297.265625 C 4.925781 299.253906 4.277344 301.304688 3.824219 303.414062 C 3.371094 305.523438 3.117188 307.660156 3.066406 309.816406 C 3.066406 323.183594 11.910156 333.601562 22.53125 341.269531 C 33.15625 348.933594 46.890625 354.429688 63.398438 359.339844 C 96.210938 369.171875 139.648438 374.824219 187.589844 374.824219 C 235.53125 374.824219 278.953125 369.125 311.597656 359.339844 C 328.105469 354.429688 341.855469 348.734375 352.460938 341.269531 C 363.070312 333.804688 371.925781 323.183594 371.925781 309.816406 C 371.878906 307.660156 371.625 305.523438 371.171875 303.414062 C 370.71875 301.304688 370.070312 299.253906 369.226562 297.265625 C 368.386719 295.277344 367.367188 293.386719 366.167969 291.589844 C 364.964844 289.796875 363.609375 288.128906 362.09375 286.589844 C 355.964844 280.136719 348.894531 274.976562 340.878906 271.105469 C 323.96875 262.464844 301.375 256.175781 274.851562 251.65625 C 273.578125 251.367188 272.285156 251.25 270.980469 251.304688 C 269.675781 251.359375 268.402344 251.585938 267.15625 251.984375 C 265.910156 252.382812 264.742188 252.9375 263.644531 253.648438 C 262.550781 254.359375 261.566406 255.203125 260.695312 256.175781 C 259.847656 257.179688 259.148438 258.28125 258.597656 259.476562 C 258.050781 260.671875 257.671875 261.921875 257.464844 263.21875 C 257.253906 264.519531 257.226562 265.824219 257.375 267.128906 C 257.527344 268.4375 257.847656 269.699219 258.34375 270.917969 C 258.851562 272.117188 259.511719 273.226562 260.324219 274.246094 C 261.136719 275.265625 262.070312 276.15625 263.125 276.917969 C 264.183594 277.679688 265.324219 278.285156 266.546875 278.734375 C 267.769531 279.183594 269.03125 279.457031 270.328125 279.558594 C 294.886719 283.679688 315.128906 289.78125 328.105469 296.453125 C 332.976562 298.867188 337.363281 301.960938 341.265625 305.746094 C 343.621094 308.300781 343.621094 309.679688 343.621094 309.863281 C 343.621094 310.453125 342.644531 313.597656 335.957031 318.117188 C 329.265625 322.640625 318.085938 328.136719 303.730469 332.472656 C 274.648438 341.113281 233.179688 346.609375 187.589844 346.609375 C 142.003906 346.609375 100.347656 341.113281 71.265625 332.472656 C 56.910156 328.136719 45.714844 322.839844 39.039062 318.117188 C 32.367188 313.394531 31.375 310.453125 31.375 309.863281 C 31.375 309.679688 31.375 308.316406 33.730469 305.746094 C 37.632812 301.960938 42.019531 298.867188 46.890625 296.453125 C 59.667969 289.78125 79.519531 283.679688 103.289062 279.558594 C 104.210938 279.449219 105.113281 279.25 105.996094 278.964844 C 106.878906 278.679688 107.726562 278.308594 108.539062 277.855469 C 109.347656 277.402344 110.109375 276.878906 110.816406 276.277344 C 111.523438 275.675781 112.167969 275.011719 112.746094 274.285156 C 113.324219 273.554688 113.824219 272.78125 114.25 271.957031 C 114.675781 271.128906 115.019531 270.269531 115.277344 269.378906 C 115.535156 268.488281 115.703125 267.578125 115.78125 266.652344 C 115.863281 265.726562 115.851562 264.804688 115.75 263.878906 C 115.648438 262.957031 115.460938 262.050781 115.183594 261.167969 C 114.902344 260.28125 114.542969 259.429688 114.097656 258.613281 C 113.652344 257.800781 113.132812 257.035156 112.539062 256.320312 C 111.945312 255.609375 111.285156 254.957031 110.566406 254.375 C 109.84375 253.789062 109.074219 253.28125 108.25 252.847656 C 107.429688 252.414062 106.574219 252.0625 105.6875 251.796875 C 104.796875 251.53125 103.890625 251.351562 102.964844 251.261719 C 102.039062 251.175781 101.117188 251.175781 100.191406 251.269531 Z M 100.144531 251.269531 " fill-opacity="1" fill-rule="nonzero"/></g><path fill="#77c720" d="M 187.589844 0.128906 C 189.398438 0.128906 191.203125 0.175781 193.007812 0.265625 C 194.8125 0.355469 196.613281 0.488281 198.414062 0.667969 C 200.210938 0.847656 202.003906 1.070312 203.792969 1.335938 C 205.578125 1.601562 207.359375 1.910156 209.128906 2.265625 C 210.902344 2.621094 212.664062 3.015625 214.417969 3.457031 C 216.171875 3.894531 217.910156 4.378906 219.640625 4.90625 C 221.367188 5.429688 223.082031 5.996094 224.785156 6.605469 C 226.484375 7.214844 228.171875 7.867188 229.839844 8.558594 C 231.507812 9.25 233.160156 9.984375 234.792969 10.757812 C 236.425781 11.53125 238.039062 12.34375 239.632812 13.195312 C 241.226562 14.046875 242.800781 14.9375 244.347656 15.867188 C 245.898438 16.796875 247.425781 17.765625 248.925781 18.769531 C 250.429688 19.773438 251.90625 20.8125 253.355469 21.890625 C 254.808594 22.96875 256.230469 24.078125 257.628906 25.226562 C 259.027344 26.371094 260.394531 27.550781 261.730469 28.765625 C 263.070312 29.980469 264.378906 31.226562 265.65625 32.503906 C 266.933594 33.78125 268.179688 35.089844 269.394531 36.425781 C 270.609375 37.765625 271.789062 39.132812 272.933594 40.53125 C 274.082031 41.929688 275.191406 43.351562 276.269531 44.804688 C 277.347656 46.253906 278.386719 47.730469 279.390625 49.234375 C 280.394531 50.734375 281.363281 52.261719 282.292969 53.8125 C 283.21875 55.359375 284.113281 56.933594 284.964844 58.527344 C 285.816406 60.121094 286.628906 61.734375 287.402344 63.367188 C 288.175781 65 288.90625 66.648438 289.601562 68.320312 C 290.292969 69.988281 290.941406 71.675781 291.554688 73.375 C 292.164062 75.074219 292.730469 76.792969 293.253906 78.519531 C 293.78125 80.25 294.265625 81.988281 294.703125 83.742188 C 295.144531 85.496094 295.539062 87.257812 295.894531 89.03125 C 296.246094 90.800781 296.558594 92.582031 296.824219 94.367188 C 297.089844 96.15625 297.3125 97.949219 297.492188 99.746094 C 297.671875 101.546875 297.804688 103.347656 297.894531 105.152344 C 297.984375 106.957031 298.03125 108.761719 298.03125 110.570312 C 298.03125 161.855469 222.570312 268.164062 196.246094 300.789062 C 195.78125 301.445312 195.242188 302.035156 194.628906 302.554688 C 194.019531 303.078125 193.351562 303.519531 192.632812 303.878906 C 191.914062 304.238281 191.160156 304.503906 190.375 304.679688 C 189.589844 304.851562 188.796875 304.929688 187.992188 304.910156 L 187.40625 304.910156 C 186.570312 304.933594 185.75 304.855469 184.933594 304.683594 C 184.117188 304.511719 183.335938 304.246094 182.582031 303.886719 C 181.832031 303.53125 181.128906 303.089844 180.480469 302.566406 C 179.835938 302.042969 179.257812 301.449219 178.75 300.789062 C 152.421875 268.164062 76.964844 161.855469 76.964844 110.570312 C 76.964844 108.761719 77.011719 106.953125 77.105469 105.144531 C 77.195312 103.339844 77.328125 101.535156 77.507812 99.738281 C 77.6875 97.9375 77.914062 96.144531 78.179688 94.355469 C 78.449219 92.566406 78.757812 90.785156 79.113281 89.011719 C 79.46875 87.238281 79.867188 85.472656 80.308594 83.71875 C 80.75 81.964844 81.234375 80.222656 81.761719 78.492188 C 82.289062 76.761719 82.855469 75.046875 83.46875 73.34375 C 84.078125 71.640625 84.730469 69.953125 85.425781 68.285156 C 86.121094 66.613281 86.855469 64.960938 87.628906 63.328125 C 88.402344 61.691406 89.21875 60.078125 90.074219 58.484375 C 90.925781 56.890625 91.820312 55.316406 92.75 53.765625 C 93.683594 52.214844 94.652344 50.6875 95.65625 49.1875 C 96.664062 47.683594 97.707031 46.207031 98.785156 44.753906 C 99.863281 43.300781 100.976562 41.878906 102.128906 40.480469 C 103.277344 39.082031 104.457031 37.714844 105.675781 36.375 C 106.890625 35.035156 108.136719 33.730469 109.417969 32.449219 C 110.699219 31.171875 112.007812 29.925781 113.351562 28.714844 C 114.691406 27.5 116.0625 26.320312 117.460938 25.171875 C 118.859375 24.027344 120.285156 22.914062 121.738281 21.839844 C 123.191406 20.761719 124.671875 19.722656 126.175781 18.71875 C 127.679688 17.714844 129.210938 16.75 130.761719 15.820312 C 132.3125 14.890625 133.886719 14 135.484375 13.148438 C 137.078125 12.296875 138.695312 11.484375 140.332031 10.714844 C 141.964844 9.941406 143.621094 9.210938 145.292969 8.519531 C 146.964844 7.828125 148.648438 7.179688 150.355469 6.570312 C 152.058594 5.960938 153.773438 5.394531 155.503906 4.871094 C 157.238281 4.347656 158.980469 3.867188 160.734375 3.425781 C 162.488281 2.988281 164.253906 2.59375 166.027344 2.242188 C 167.800781 1.890625 169.585938 1.582031 171.375 1.316406 C 173.164062 1.050781 174.957031 0.832031 176.757812 0.65625 C 178.558594 0.480469 180.359375 0.347656 182.167969 0.257812 C 183.972656 0.171875 185.78125 0.128906 187.589844 0.128906 Z M 187.589844 74.457031 C 188.867188 74.457031 190.136719 74.519531 191.40625 74.644531 C 192.675781 74.769531 193.933594 74.953125 195.183594 75.203125 C 196.433594 75.449219 197.667969 75.757812 198.890625 76.128906 C 200.109375 76.5 201.308594 76.925781 202.484375 77.414062 C 203.664062 77.902344 204.816406 78.445312 205.941406 79.046875 C 207.0625 79.648438 208.15625 80.300781 209.214844 81.007812 C 210.277344 81.71875 211.300781 82.476562 212.285156 83.285156 C 213.269531 84.09375 214.214844 84.945312 215.117188 85.847656 C 216.015625 86.75 216.871094 87.691406 217.679688 88.675781 C 218.492188 89.664062 219.25 90.683594 219.957031 91.746094 C 220.664062 92.804688 221.320312 93.894531 221.921875 95.019531 C 222.523438 96.144531 223.066406 97.296875 223.554688 98.472656 C 224.042969 99.652344 224.472656 100.847656 224.84375 102.070312 C 225.214844 103.289062 225.523438 104.523438 225.773438 105.773438 C 226.019531 107.023438 226.207031 108.285156 226.332031 109.550781 C 226.457031 110.820312 226.519531 112.09375 226.519531 113.367188 C 226.519531 114.640625 226.457031 115.914062 226.332031 117.183594 C 226.210938 118.449219 226.023438 119.710938 225.773438 120.960938 C 225.523438 122.210938 225.214844 123.445312 224.847656 124.664062 C 224.476562 125.886719 224.046875 127.082031 223.558594 128.261719 C 223.070312 129.4375 222.527344 130.589844 221.925781 131.714844 C 221.324219 132.839844 220.671875 133.929688 219.964844 134.992188 C 219.253906 136.050781 218.496094 137.074219 217.6875 138.058594 C 216.878906 139.042969 216.023438 139.988281 215.121094 140.886719 C 214.222656 141.789062 213.277344 142.644531 212.292969 143.453125 C 211.308594 144.261719 210.285156 145.019531 209.226562 145.730469 C 208.164062 146.4375 207.074219 147.089844 205.949219 147.691406 C 204.824219 148.292969 203.671875 148.835938 202.496094 149.324219 C 201.316406 149.8125 200.121094 150.242188 198.898438 150.613281 C 197.679688 150.980469 196.445312 151.289062 195.195312 151.539062 C 193.945312 151.789062 192.683594 151.976562 191.414062 152.097656 C 190.148438 152.222656 188.875 152.285156 187.601562 152.285156 C 186.328125 152.285156 185.054688 152.222656 183.785156 152.097656 C 182.519531 151.972656 181.257812 151.785156 180.007812 151.539062 C 178.757812 151.289062 177.523438 150.980469 176.304688 150.609375 C 175.082031 150.238281 173.882812 149.808594 172.707031 149.320312 C 171.53125 148.832031 170.378906 148.289062 169.253906 147.6875 C 168.128906 147.085938 167.039062 146.429688 165.980469 145.722656 C 164.917969 145.015625 163.898438 144.257812 162.910156 143.445312 C 161.925781 142.636719 160.984375 141.78125 160.082031 140.882812 C 159.179688 139.980469 158.328125 139.035156 157.519531 138.050781 C 156.710938 137.066406 155.953125 136.042969 155.242188 134.980469 C 154.535156 133.921875 153.882812 132.828125 153.28125 131.707031 C 152.679688 130.582031 152.136719 129.429688 151.648438 128.25 C 151.160156 127.074219 150.734375 125.875 150.363281 124.65625 C 149.992188 123.433594 149.683594 122.199219 149.4375 120.949219 C 149.1875 119.699219 149.003906 118.441406 148.878906 117.171875 C 148.753906 115.902344 148.691406 114.632812 148.691406 113.355469 C 148.691406 112.082031 148.75 110.8125 148.875 109.542969 C 149 108.273438 149.183594 107.015625 149.429688 105.765625 C 149.679688 104.515625 149.988281 103.277344 150.355469 102.058594 C 150.726562 100.839844 151.152344 99.640625 151.640625 98.464844 C 152.128906 97.285156 152.671875 96.132812 153.269531 95.011719 C 153.871094 93.886719 154.527344 92.792969 155.234375 91.734375 C 155.941406 90.675781 156.699219 89.652344 157.507812 88.667969 C 158.316406 87.679688 159.171875 86.738281 160.070312 85.835938 C 160.972656 84.9375 161.914062 84.082031 162.902344 83.273438 C 163.886719 82.464844 164.910156 81.707031 165.96875 81 C 167.027344 80.292969 168.121094 79.636719 169.246094 79.035156 C 170.367188 78.4375 171.519531 77.894531 172.699219 77.40625 C 173.875 76.917969 175.074219 76.492188 176.292969 76.121094 C 177.511719 75.753906 178.75 75.445312 180 75.195312 C 181.25 74.949219 182.507812 74.765625 183.777344 74.640625 C 185.046875 74.515625 186.316406 74.457031 187.589844 74.457031 Z M 187.589844 74.457031 " fill-opacity="1" fill-rule="evenodd"/></svg>